<?xml version="1.0"?><svg xmlns="http://www.w3.org/2000/svg" viewBox="0 0 100 100"><g><path d="M67.282 42.298l.218-3.161a2.242 2.242 0 0 0-.618-1.465l-5.797-6.08a2.24 2.24 0 0 0-1.622-.695h-3.454a1.581 1.581 0 0 1-1.581-1.581v-2.488a5.872 5.872 0 0 0 3.367-5.307v-5.997a5.823 5.823 0 0 0-5.823-5.823h-3.943a5.823 5.823 0 0 0-5.823 5.823v5.997a5.872 5.872 0 0 0 3.367 5.307v2.488c0 .873-.708 1.581-1.581 1.581h-3.454a2.24 2.24 0 0 0-1.622.695l-5.797 6.08a2.242 2.242 0 0 0-.618 1.465l.218 3.161" fill="none" stroke="#000" stroke-width="3" stroke-linecap="round" stroke-linejoin="round" stroke-miterlimit="10"/><path fill="none" stroke="#849b87" stroke-width="3" stroke-linecap="round" stroke-linejoin="round" stroke-miterlimit="10" d="M50 50V38"/></g><g><path d="M42.282 90.298l.218-3.161a2.242 2.242 0 0 0-.618-1.465l-5.797-6.08a2.24 2.24 0 0 0-1.622-.695h-3.454a1.581 1.581 0 0 1-1.581-1.581v-2.488a5.872 5.872 0 0 0 3.367-5.307v-5.997a5.823 5.823 0 0 0-5.823-5.823h-3.943a5.823 5.823 0 0 0-5.823 5.823v5.997a5.872 5.872 0 0 0 3.367 5.307v2.488c0 .873-.708 1.581-1.581 1.581h-3.454a2.24 2.24 0 0 0-1.622.695l-5.797 6.08a2.24 2.24 0 0 0-.619 1.465l.218 3.161" fill="none" stroke="#000" stroke-width="3" stroke-linecap="round" stroke-linejoin="round" stroke-miterlimit="10"/><path fill="none" stroke="#849b87" stroke-width="3" stroke-linecap="round" stroke-linejoin="round" stroke-miterlimit="10" d="M50 50l-10.392 6"/></g><g><path d="M56.718 90.298l-.218-3.161c.02-.547.24-1.069.618-1.465l5.797-6.08a2.24 2.24 0 0 1 1.622-.695h3.454c.873 0 1.581-.708 1.581-1.581v-2.488a5.872 5.872 0 0 1-3.367-5.307v-5.997a5.823 5.823 0 0 1 5.823-5.823h3.943a5.823 5.823 0 0 1 5.823 5.823v5.997a5.872 5.872 0 0 1-3.367 5.307v2.488c0 .873.708 1.581 1.581 1.581h3.454a2.24 2.24 0 0 1 1.622.695l5.797 6.08c.378.396.598.918.618 1.465l-.218 3.161" fill="none" stroke="#000" stroke-width="3" stroke-linecap="round" stroke-linejoin="round" stroke-miterlimit="10"/><path fill="none" stroke="#849b87" stroke-width="3" stroke-linecap="round" stroke-linejoin="round" stroke-miterlimit="10" d="M50 50l10.392 6"/></g><metadata xmlns:d="https://loading.io/stock/">
<d:name>network</d:name>
<d:tags>network,share,community,connection,social network,group,team,taskforce,crew,staff</d:tags>
<d:license>by</d:license>
<d:slug>g4yp58</d:slug>
</metadata></svg>